<svg width="67" height="38" viewBox="0 0 67 38" fill="none" xmlns="http://www.w3.org/2000/svg">
<path fill-rule="evenodd" clip-rule="evenodd" d="M57.3546 25.2829C57.2616 26.0279 57.1396 26.7429 56.9886 27.4279C56.3526 27.2209 55.6186 26.8879 54.5816 26.9579C53.9626 26.9979 53.2316 27.2359 53.2216 27.7939C53.2096 28.4119 54.2256 28.7799 54.7916 29.0499C55.8096 29.5379 56.9036 30.1869 56.9886 31.5099C57.0536 32.5249 56.5816 33.4099 56.0466 33.9159C54.6206 35.2639 51.4566 35.4059 49.2966 34.5439C49.4316 33.8239 49.5536 33.0919 49.6636 32.3459C50.4996 32.7019 51.6476 33.1819 52.9076 33.0259C53.4806 32.9559 54.1836 32.6209 54.1626 32.0329C54.1376 31.3149 52.7976 30.8869 52.1226 30.5149C51.3376 30.0829 50.4446 29.3629 50.3956 28.2649C50.3636 27.5339 50.6476 26.8489 51.0236 26.3819C52.1386 24.9959 55.0036 24.5039 57.3546 25.2829ZM31.7116 11.2709H34.5956L32.8196 22.4649H29.9346L31.7116 11.2709ZM24.2476 13.4959L23.8016 16.3049H24.6356C25.4456 16.3049 26.2136 15.6729 26.3416 14.8999C26.4686 14.1279 25.9086 13.4959 25.0986 13.4959H24.2476ZM21.7156 11.2699H26.1326C28.9426 11.2699 29.6726 12.8879 29.3656 14.8209C29.1096 16.4349 27.9496 17.5129 26.4436 17.8959L29.2416 22.4649H25.6196L23.5216 18.0689L22.8246 22.4649H19.9386L21.7156 11.2699ZM44.8856 11.2709H47.7706L45.9946 22.4649H43.1096L44.8856 11.2709ZM49.9626 11.2699H56.2966L55.9096 13.7039H52.4616L52.1576 15.6169H55.4366L55.0506 18.0509H51.7716L51.4576 20.0309H54.9066L54.5196 22.4649H48.1866L49.9626 11.2699ZM13.6666 11.2699H19.9996L19.6136 13.7039H16.1656L15.8616 15.6169H19.1396L18.7536 18.0509H15.4756L15.1616 20.0309H18.6096L18.2236 22.4649H11.8896L13.6666 11.2699ZM36.7806 11.2699H43.1856L42.7996 13.7039H39.2796L38.9706 15.6169H42.1736L41.7866 18.0509H38.5846L37.8846 22.4649H35.0036L36.7806 11.2699ZM60.4916 13.7039H61.0886C63.2936 13.7039 64.1556 15.2589 63.9186 16.7599C63.5986 18.7729 62.1516 20.0299 60.2596 20.0299H59.4886L60.4926 13.7039H60.4916ZM57.9936 11.2699H61.7536C66.2326 11.2699 67.2536 14.6579 66.9026 16.8699C66.4006 20.0299 63.5826 22.4649 59.9776 22.4649H56.2176L57.9936 11.2699ZM0.141602 9.74491H5.4786L6.1126 17.8779C9.6416 11.7659 13.2316 5.88491 16.8476 0.10791H18.5876C14.7606 7.48791 10.9816 14.9169 7.3226 22.4649H3.4046L2.4496 13.4949C2.2116 11.2699 1.7616 10.3259 0.141602 10.0859V9.74591" fill="#D3A562"/>
<path fill-rule="evenodd" clip-rule="evenodd" d="M2.16262 5.11985L6.71262 7.04885L7.10762 12.1159H7.44462L11.5746 5.12285V4.77185H2.16162L2.16262 5.11985ZM20.8686 25.0969H22.7356L22.1056 29.5089C22.6396 28.9939 23.2916 28.6759 24.0206 28.6759C25.5186 28.6759 26.5006 30.1189 26.2366 31.9009C25.9716 33.6828 24.5596 35.1278 23.0616 35.1278C22.3226 35.1278 21.7936 34.7949 21.4316 34.2349L21.3326 34.9349H19.4656L20.8686 25.0969ZM23.1986 30.4829C23.8886 30.4829 24.3576 31.1149 24.2456 31.8949C24.1336 32.6729 23.4846 33.3049 22.7946 33.3049C22.1046 33.3049 21.6356 32.6729 21.7476 31.8949C21.8596 31.1149 22.5096 30.4829 23.1986 30.4829Z" fill="#D3A562"/>
<path fill-rule="evenodd" clip-rule="evenodd" d="M26.3966 28.8259H28.6376L29.6396 31.9529L31.5856 28.8259H33.7516L28.0686 37.9529H25.9036L28.2996 34.1049L26.3966 28.8259ZM44.8846 34.9319L46.5256 25.0939H49.2106L47.5696 34.9319H44.8846ZM42.6406 25.0739C41.7146 27.2529 40.9256 29.5679 39.9726 31.7189L39.6926 30.4279L39.6886 30.4119L39.7356 30.6419C39.5286 29.9629 39.1756 29.3219 38.7256 28.7349L38.6896 28.6899C38.6116 28.5879 38.5276 28.4899 38.4436 28.3919C38.3916 28.3319 38.3396 28.2729 38.2856 28.2139C37.6356 27.5029 36.8476 26.8889 36.0156 26.4029L38.4026 34.9099H41.2806C42.6346 31.5899 44.0966 28.3789 45.4656 25.0739H42.6416" fill="#D3A562"/>
<path fill-rule="evenodd" clip-rule="evenodd" d="M37.5726 25.0749H33.1826V25.2889C35.7106 25.7819 38.9006 27.9019 39.7356 30.6419L38.7936 26.0599C38.6636 25.3539 38.1726 25.0749 37.5736 25.0749H37.5726ZM62.3316 27.7999L60.9646 31.4569H63.1746L62.3316 27.7989V27.7999ZM66.4066 34.9629H63.9466C63.7876 34.4929 63.7436 33.9099 63.5806 33.4449H60.2326L59.6046 34.9629H56.7786L60.4416 26.5389C60.6036 26.1689 60.8946 25.6649 61.0166 25.4389C61.2036 25.0989 61.9226 25.0739 62.2286 25.0739H64.2606L66.4066 34.9629Z" fill="#D3A562"/>
</svg>
